<svg id="Capa_1" enable-background="new 0 0 511.929 511.929" height="512" viewBox="0 0 511.929 511.929" width="512" xmlns="http://www.w3.org/2000/svg"><g><path d="m385.324 108.911h-68.458c-73.747-71.636-48.216-71.346-121.804 0-102.802 1.493-84.54-16.356-86.126 86.127-71.712 73.929-71.403 48.045 0 121.805 1.493 102.802-16.357 84.54 86.126 86.126l48.407 48.407h.001c6.889 6.889 18.099 6.888 24.989 0 0 0 48.407-48.407 48.407-48.407 102.802-1.493 84.54 16.356 86.126-86.127 71.712-73.929 71.404-48.045 0-121.804v-68.457c.001-9.744-7.925-17.67-17.668-17.67zm0 15c1.472 0 2.669 1.197 2.669 2.669v53.457l-56.126-56.126zm2.669 77.34v109.378l-77.34 77.34h-109.377l-77.34-77.34v-109.378l77.34-77.34h109.377zm-133.917-130.14c1.041-1.041 2.735-1.042 3.776 0l37.801 37.801h-79.377zm-130.14 55.47c0-1.472 1.197-2.669 2.669-2.669h53.458l-56.126 56.127v-53.458zm-52.801 131.246c-1.104-1.44-1.101-2.334.001-3.775 0 0 37.801-37.801 37.801-37.801v79.378zm55.47 130.142c-1.472 0-2.669-1.197-2.669-2.669v-53.457l56.126 56.126zm131.248 52.8c-1.041 1.041-2.736 1.041-3.777 0h.001l-37.801-37.801h79.377zm130.14-55.47c0 1.472-1.197 2.669-2.669 2.669h-53.458l56.126-56.127v53.458zm52.802-131.246c1.104 1.44 1.101 2.334-.001 3.775 0 0-37.801 37.801-37.801 37.801v-79.378z"/><path d="m506.79 243.446-63.848-63.848c-.505-.505-.783-1.175-.783-1.888v-90.295c0-9.743-7.926-17.669-17.669-17.669h-90.296c-.702 0-1.391-.285-1.887-.782-96.301-91.698-56.182-92.082-152.686 0-134.321 6.281-105.609-28.19-110.632 110.635-.002-.001-25.939 25.936-25.939 25.936-6.759 6.92 3.509 17.551 10.608 10.606 0 0 25.937-25.937 25.937-25.937 3.338-3.338 5.176-7.775 5.176-12.494v-90.295c0-1.472 1.197-2.669 2.669-2.669h90.296c4.72 0 9.156-1.838 12.494-5.175l63.847-63.848c1.041-1.041 2.737-1.042 3.776 0l63.847 63.847c3.338 3.337 7.774 5.175 12.494 5.175h90.296c1.472 0 2.669 1.198 2.669 2.669v90.295c0 4.719 1.838 9.156 5.176 12.494l63.849 63.849c.68.68.781 1.474.781 1.887s-.102 1.207-.782 1.888l-63.848 63.848c-3.338 3.338-5.176 7.775-5.176 12.494v33.646c0 4.142 3.357 7.5 7.5 7.5s7.5-3.358 7.5-7.5v-33.645c0-.712.278-1.383.783-1.888l63.847-63.848c6.845-6.58 6.862-18.409.001-24.988z"/><path d="m434.659 394.519c-4.143 0-7.5 3.358-7.5 7.5v22.447c0 1.472-1.197 2.669-2.669 2.669h-90.296c-4.72 0-9.156 1.838-12.494 5.175l-63.847 63.848c-1.04 1.042-2.734 1.042-3.776 0l-63.848-63.848c-3.338-3.337-7.774-5.175-12.494-5.175h-90.296c-1.472 0-2.669-1.198-2.669-2.669v-90.296c0-4.719-1.838-9.156-5.176-12.494l-63.849-63.849c-.68-.68-.781-1.474-.781-1.887s.102-1.207.782-1.888l16.369-16.369c2.929-2.929 2.929-7.678 0-10.606-2.93-2.929-7.678-2.929-10.607 0l-16.368 16.368c-6.846 6.583-6.862 18.407-.001 24.989 0 0 63.847 63.848 63.847 63.848.505.505.783 1.175.783 1.888v90.295c0 9.743 7.927 17.669 17.669 17.669h90.296c.702 0 1.391.285 1.887.782 96.525 91.841 56.039 92.071 152.686 0 .496-.497 1.184-.782 1.887-.782h90.296c9.743 0 17.669-7.926 17.669-17.669v-22.447c0-4.142-3.357-7.499-7.5-7.499z"/><path d="m185.716 255.432c2.304 87.667 130.675 87.65 132.966-.002-2.304-87.667-130.676-87.648-132.966.002zm66.483-51.484c67.887 1.784 67.873 101.193-.002 102.966-67.886-1.784-67.872-101.192.002-102.966z"/></g></svg>